<?xml version="1.0" encoding="UTF-8"?>
<!-- Created with Inkscape by Vulphere (http://www.inkscape.org/) -->
<svg width="18.05111mm" height="14.81127mm" version="1.1" viewBox="0 0 18.05111 14.81127" xmlns="http://www.w3.org/2000/svg">
<title>Hyperclass class plate</title>
<desc>Flagship class of FIA World Endurance Championship</desc>
 <defs>
  <clipPath id="clipPath1604">
   <path d="m751.792 478.881h51.169v41.985h-51.169z"/>
  </clipPath>
 </defs>
 <g transform="translate(-34.65091 -48.22439)">
  <g transform="matrix(.3527778 0 0 -.3527778 -230.5648 231.9743)">
   <g clip-path="url(#clipPath1604)">
    <g transform="translate(799.5026,479.9604)">
     <path d="m0 0h-44.395c-1.309 0-2.371 1.066-2.371 2.382v34.983c0 1.508 1.218 2.732 2.72 2.732h43.637c1.691 0 3.063-1.378 3.063-3.078v-34.352c0-1.473-1.188-2.667-2.654-2.667" fill="#fff"/>
    </g>
    <g transform="translate(798.8405,519.3973)">
     <path d="m0 0c1.463 0 2.659-1.202 2.659-2.672v-33.704c0-1.469-1.196-2.672-2.659-2.672h-42.927c-1.462 0-2.659 1.203-2.659 2.672v33.704c0 1.47 1.197 2.672 2.659 2.672zm-47.048-37.845c0-1.469 1.196-2.671 2.659-2.671h45.851c1.463 0 2.659 1.202 2.659 2.671v36.642c0 1.47-1.196 2.672-2.659 2.672h-45.851c-1.463 0-2.659-1.202-2.659-2.672z" fill="#df271c"/>
    </g>
    <g transform="translate(755.8106,516.5558)">
     <path d="m0 0h2.415v-4.579h2.819v4.579h2.415v-11.977h-2.415v5.318h-2.819v-5.318h-2.415z" fill="#df271c"/>
    </g>
    <g transform="translate(767.0662,516.5558)">
     <path d="m0 0 1.577-4.63h0.033l1.678 4.63h2.617l-3.103-7.263v-4.714h-2.416v4.714l-3.103 7.263z" fill="#df271c"/>
    </g>
    <g transform="translate(776.2753,511.138)">
     <path d="m0 0h1.073c0.481 0 0.87 0.145 1.166 0.436 0.297 0.291 0.445 0.744 0.445 1.359 0 0.604-0.129 1.062-0.386 1.375s-0.688 0.47-1.291 0.47h-1.007zm-2.415 5.418h4.227c0.615 0 1.132-0.103 1.551-0.31 0.419-0.208 0.758-0.478 1.015-0.814 0.257-0.335 0.442-0.718 0.554-1.149 0.111-0.43 0.167-0.87 0.167-1.317 0-0.626-0.092-1.166-0.276-1.618-0.185-0.453-0.442-0.825-0.772-1.116s-0.73-0.509-1.199-0.654c-0.47-0.145-0.99-0.218-1.56-0.218h-1.292v-4.781h-2.415z" fill="#df271c"/>
    </g>
    <g transform="translate(789.2585,516.5558)">
     <path d="m0 0v-1.979h-4.277v-2.818h4.026v-1.98h-4.026v-3.22h4.445v-1.98h-6.861v11.977z" fill="#df271c"/>
    </g>
    <g transform="translate(793.0492,511.3225)">
     <path d="m0 0h1.006c0.582 0 1.029 0.137 1.342 0.411s0.47 0.735 0.47 1.384c0 1.107-0.559 1.66-1.677 1.66h-1.141zm-2.415 5.233h4.461c1.007 0 1.79-0.254 2.349-0.763s0.839-1.283 0.839-2.323c0-0.805-0.163-1.462-0.487-1.971s-0.828-0.836-1.51-0.981v-0.034c0.414-0.056 0.744-0.159 0.99-0.31s0.436-0.369 0.57-0.654c0.135-0.286 0.227-0.646 0.277-1.082 0.051-0.436 0.081-0.973 0.092-1.611 0.012-0.637 0.048-1.123 0.109-1.459 0.062-0.335 0.204-0.565 0.428-0.688v-0.1h-2.646c-0.125 0.167-0.204 0.36-0.238 0.578s-0.057 0.445-0.068 0.679l-0.066 2.299c-0.022 0.47-0.139 0.838-0.349 1.107-0.209 0.268-0.563 0.403-1.06 0.403h-1.276v-5.066h-2.415z" fill="#df271c"/>
    </g>
    <g transform="translate(764.5798,496.5365)">
     <path d="m0 0c0 1.425-0.169 2.462-0.507 3.11s-0.955 0.973-1.849 0.973c-0.494 0-0.901-0.133-1.22-0.397-0.32-0.266-0.571-0.695-0.754-1.289-0.182-0.593-0.311-1.37-0.383-2.329-0.073-0.959-0.11-2.133-0.11-3.521 0-1.48 0.05-2.676 0.151-3.59 0.1-0.914 0.255-1.621 0.466-2.123 0.21-0.503 0.475-0.841 0.794-1.015 0.32-0.173 0.689-0.26 1.11-0.26 0.347 0 0.671 0.059 0.973 0.179 0.301 0.118 0.562 0.356 0.781 0.712s0.393 0.858 0.521 1.507c0.127 0.648 0.192 1.502 0.192 2.562h3.946c0-1.06-0.083-2.064-0.247-3.014-0.165-0.95-0.471-1.786-0.918-2.508-0.448-0.721-1.078-1.292-1.891-1.712-0.813-0.421-1.868-0.63-3.165-0.63-1.48 0-2.658 0.251-3.535 0.753s-1.548 1.201-2.014 2.096-0.767 1.969-0.905 3.22c-0.136 1.251-0.205 2.617-0.205 4.097s0.069 2.845 0.205 4.097c0.138 1.251 0.439 2.324 0.905 3.22 0.466 0.895 1.137 1.593 2.014 2.096 0.877 0.502 2.055 0.754 3.535 0.754 1.407 0 2.517-0.229 3.329-0.686 0.813-0.456 1.421-1.036 1.823-1.74 0.402-0.703 0.653-1.461 0.754-2.274 0.1-0.813 0.15-1.576 0.15-2.288z" fill="#df271c"/>
    </g>
    <g transform="translate(774.774,490.9464)">
     <path d="m0 0h3.836l-1.89 8.796h-0.056zm-0.521 12.194h4.878l5.179-19.566h-4.11l-0.905 4.138h-5.206l-0.905-4.138h-4.11z" fill="#df271c"/>
    </g>
    <g transform="translate(789.6263,494.5909)">
     <path d="m0 0h1.644c0.95 0 1.681 0.224 2.192 0.671 0.512 0.448 0.768 1.201 0.768 2.261 0 1.809-0.914 2.713-2.74 2.713h-1.864zm-3.946 8.549h7.289c1.644 0 2.923-0.415 3.837-1.246 0.913-0.832 1.37-2.097 1.37-3.796 0-1.315-0.265-2.388-0.795-3.219-0.53-0.832-1.352-1.366-2.466-1.604v-0.054c0.676-0.092 1.215-0.261 1.617-0.507 0.401-0.247 0.712-0.603 0.931-1.069s0.37-1.055 0.453-1.767c0.082-0.713 0.132-1.59 0.15-2.631 0.018-1.042 0.078-1.836 0.178-2.384 0.101-0.548 0.333-0.923 0.699-1.124v-0.164h-4.324c-0.203 0.274-0.333 0.589-0.388 0.945-0.056 0.357-0.093 0.726-0.111 1.11l-0.108 3.754c-0.036 0.768-0.226 1.37-0.569 1.809-0.343 0.438-0.92 0.658-1.732 0.658h-2.085v-8.276h-3.946z" fill="#df271c"/>
    </g>
   </g>
  </g>
 </g>
</svg>
