<?xml version="1.0" encoding="UTF-8" standalone="no"?>
<!-- Created with Inkscape (http://www.inkscape.org/) -->
<!-- Ammended Richard Walledge (www.geocities.com/kesmaster.geo) -->
<svg
   xmlns:svg="http://www.w3.org/2000/svg"
   xmlns="http://www.w3.org/2000/svg"
   version="1.0"
   width="525"
   height="440"
   id="svg3874">
<style type="text/css">
  .grid      {fill:none;fill-opacity:0.75;fill-rule:evenodd;
    stroke:#1e90ff;stroke-width:1.49961448;stroke-linecap:butt;stroke-linejoin:miter;stroke-miterlimit:4;stroke-dasharray:none;stroke-opacity:1}
  .blksq     {fill:#000000;fill-opacity:1;fill-rule:nonzero;stroke:none;stroke-width:2;
    stroke-linecap:round;stroke-linejoin:round;stroke-miterlimit:4;stroke-dasharray:none;stroke-dashoffset:0;stroke-opacity:1}
  .cor text       {font-family: 'Arial'; font-size: 15px; fill-opacity: 0.5; }
  .cor text:hover {opacity: 1.0; fill-opacity: 1.0; stroke:black; stroke-width:0.3; }
</style>
  <defs id="defs3876" />
  <g id="layer1">
    <path
       style="fill:#4682b4;fill-opacity:1;fill-rule:nonzero;stroke:#ffffff;stroke-width:2.99922895;stroke-linecap:round;stroke-linejoin:round;stroke-miterlimit:4;stroke-dashoffset:0;stroke-opacity:1;display:inline"
       d="M 30.580843,11.067226 L 496.99554,11.067226 C 511.53231,11.067226 523.23519,22.770106 523.23519,37.306868 L 523.23519,406.20536 C 523.23519,420.74212 511.53231,432.445 496.99554,432.445 L 30.580843,432.445 C 16.044082,432.445 4.3412018,420.74212 4.3412018,406.20536 L 4.3412018,37.306868 C 4.3412018,22.770106 16.044082,11.067226 30.580843,11.067226 z "
       id="rect1365" />
    <g id="g1554" transform="translate(5e-6,-10)"
       style="fill:none;stroke:#1e90ff;stroke-opacity:1;display:inline">
      <path id="path8926" d="M 74.96355,21.511998 L 74.96355,442.00023" class="grid" />
      <path id="path8928" d="M 149.9271,22.261974 L 149.9271,442.75021" class="grid" />
      <path id="path8930" d="M 224.89065,22.261974 L 224.89065,442.75021" class="grid" />
      <path id="path8932" d="M 299.8542,21.262003 L 299.8542,441.75025" class="grid" />
      <path id="path8934" d="M 374.81775,21.761991 L 374.81775,442.25023" class="grid" />
      <path id="path8936" d="M 449.7813,21.761981 L 449.7813,442.25023" class="grid" />
      <path id="path8938" d="M 4.99757,75.510481 L 522.74583,75.510481" class="grid" />
      <path id="path8940" d="M 4.4978081,150.50838 L 522.24607,150.50838" class="grid" />
      <path id="path8942" d="M 4.997568,225.35629 L 522.74583,225.35629" class="grid" />
      <path id="path8944" d="M 4.6977138,300.65418 L 522.44597,300.65418" class="grid" />
      <path id="path8946" d="M 4.997565,375.50208 L 522.74583,375.50208" class="grid" />
    </g>
    <path
       style="fill:none;fill-opacity:1;fill-rule:nonzero;stroke:#1e90ff;stroke-width:2.99922895;stroke-linecap:round;stroke-linejoin:round;stroke-miterlimit:4;stroke-dashoffset:0;stroke-opacity:1;display:inline"
       d="M 30.580843,11.067226 L 496.99554,11.067226 C 511.53231,11.067226 523.23519,22.770106 523.23519,37.306868 L 523.23519,406.20536 C 523.23519,420.74212 511.53231,432.445 496.99554,432.445 L 30.580843,432.445 C 16.044082,432.445 4.3412018,420.74212 4.3412018,406.20536 L 4.3412018,37.306868 C 4.3412018,22.770106 16.044082,11.067226 30.580843,11.067226 z " id="rect8948" />

<!-- Following is whole layout -->
    <path
       d="M 142.4568,349.84924 C 137.69782,347.45478 134.55308,341.65484 135.45436,336.93446 C 136.51678,331.3703 136.41745,328.43886 135.12698,327.27216 C 134.40177,326.61649 130.94383,326.58608 125.04931,327.1835 L 116.07567,328.093 L 105.9898,319.07757 C 90.338368,305.08724 84.517474,293.15871 89.279316,284.83343 C 92.052019,279.98583 96.768373,277.30768 106.71695,274.93158 C 122.24093,271.22387 128.32161,266.00517 128.32161,256.38955 C 128.32161,250.70911 127.56519,248.01211 125.972,248.01211 C 125.41328,248.01211 121.38736,250.42802 117.02551,253.38082 C 94.933455,268.33617 78.318371,272.05017 64.320298,265.16213 C 57.577606,261.84424 52.511477,254.79634 52.517388,248.74217 C 52.525687,240.24442 52.577228,240.2118 101.58584,217.69513 C 237.35862,155.3153 277.47126,136.85775 290.37567,130.82483 C 298.23117,127.15233 339.79016,107.98878 382.72898,88.239173 C 448.7267,57.88368 461.51498,52.330794 465.42585,52.330794 C 473.63982,52.330794 482.11955,59.007081 482.07971,65.442774 C 482.05516,69.408253 472.26907,94.283232 468.82405,99.136978 C 464.93952,104.60994 459.99178,108.88944 441.443,122.81993 C 404.5861,150.50019 386.83824,164.05713 384.58675,166.25036 C 381.23815,169.5123 381.43859,172.63067 385.97945,187.91709 C 388.08915,195.01923 390.11864,203.73549 390.48944,207.28656 C 392.07473,222.46855 385.92276,238.87303 375.45212,247.3842 C 362.95176,257.54526 341.14389,260.63246 326.40315,254.32776 C 317.45583,250.50093 313.43634,245.4203 302.84632,224.55187 C 297.61978,214.25263 292.61226,205.40895 291.7185,204.89923 C 288.38392,202.99755 278.86479,212.63464 276.69826,220.10556 C 276.12877,222.06937 274.84411,232.83936 273.84346,244.03889 C 272.32342,261.05163 271.59347,265.27371 269.40647,269.70237 C 266.38959,275.81158 239.82002,307.0964 232.43675,313.23303 C 229.7021,315.50596 224.76152,318.98827 221.4577,320.97152 C 214.46291,325.17038 153.89154,350.02831 148.79941,350.78979 C 146.78968,351.09033 144.14357,350.69793 142.4568,349.84924 z M 180.90891,322.98647 C 198.87212,315.68813 211.43373,309.94509 215.58874,307.1312 C 222.53487,302.42708 231.27519,293.38157 246.99983,274.62334 C 257.68419,261.87775 257.2154,263.08214 259.09772,243.54223 C 262.03228,213.07921 263.42814,208.93734 274.42677,198.05722 C 281.59097,190.97019 285.61999,189.6374 293.09458,191.88198 C 299.91806,193.93102 303.21403,197.37412 308.79164,208.27986 C 322.9018,235.86899 325.77827,240.59802 329.57339,242.44581 C 335.61779,245.38877 350.12394,244.43545 358.57333,240.53997 C 374.76285,233.07604 379.86137,214.22226 372.40092,189.40704 C 365.95334,167.96088 365.89245,164.01805 371.90893,157.55358 C 373.50054,155.84347 391.15642,142.04398 411.14422,126.88805 C 450.08291,97.362451 455.77373,92.45717 459.01152,85.628136 C 461.47665,80.428739 465.93429,67.189063 465.38648,66.693792 C 464.88152,66.237259 69.04804,248.55866 67.494206,249.96347 C 66.629134,250.74558 66.632738,251.52232 67.507166,252.75765 C 68.481675,254.13438 70.301159,254.45558 76.821176,254.40196 C 87.291496,254.31584 88.685726,253.68292 115.51275,236.83742 C 120.94677,233.42523 124.11785,233.42997 131.03884,236.86061 C 146.86927,244.70756 147.32121,270.00928 131.81894,280.53448 C 128.93714,282.49106 122.77906,284.96151 116.12448,286.83065 C 102.82258,290.56692 100.47884,292.67327 103.41961,298.24872 C 104.41407,300.13412 109.25598,305.47025 114.17941,310.10679 L 123.1311,318.53684 L 131.27427,318.53684 C 143.35451,318.53684 149.29449,322.16261 150.84985,330.48577 C 151.2552,332.65496 151.84719,334.42975 152.16536,334.42975 C 152.48354,334.42975 165.41814,329.28027 180.90891,322.98647 z M 477.1576,54.328784 C 476.7727,53.765718 477.2137,53.599194 478.19143,53.938404 C 480.09479,54.598745 480.44304,55.310713 478.86267,55.310713 C 478.29406,55.310713 477.52678,54.868844 477.1576,54.328784 z "
       style="fill:#ff0000;stroke:#a08070;stroke-width:3;stroke-linecap:round;stroke-linejoin:round;stroke-miterlimit:4;stroke-dashoffset:0;stroke-opacity:1;" id="path4069" />

  <text y="50px" x="30px" style="font-family:'Century Gothic','Bookman Old Style','Arial black'; font-size:21px; font-weight:bold; fill:white">Mount Fuji Raceway, Japan</text>
    <path
       style="fill:#ffffd0;fill-opacity:1;fill-rule:nonzero;stroke:#a08070;stroke-width:0.99999928;stroke-linecap:round;stroke-linejoin:round;stroke-miterlimit:4;stroke-dashoffset:0;stroke-opacity:1;display:inline"
       d="M 241.56932,133.958 L 247.50932,137.750443 L 253.44939,141.54293 L 247.195,144.79092 L 240.94063,148.03887 L 241.25498,140.998436 L 241.56932,133.958 z "
       transform="matrix(1,0,0,1,0,0)" id="path2402" />
  </g>
  <g class="cor">
    <text y="130px" x="250px">Start</text>
    <text y="70px" x="485px">First</text>
    <text y="180px" x="400px">Coca-cola/Santory</text>
    <text y="240px" x="390px">100R</text>
    <text y="190px" x="240px">Hairpin</text>
    <text y="320px" x="240px">300R</text>
    <text y="370px" x="110px">Dunlop</text>
    <text y="310px" x="10px">13th Corner</text>
    <text y="240px" x="140px">Netz</text>
    <text y="200px" x="5px">Panasonic/Last Corner</text>
    <text y="510px" x="40px">MC</text>
  </g>

</svg>
